<svg width="411" height="68" viewBox="0 0 411 68" fill="none" xmlns="http://www.w3.org/2000/svg">
<g clip-path="url(#clip0_11_122)">
<path d="M90.6554 54.5434H81.2935V16.0154H90.6554V54.5434Z" fill="#361041"/>
<path d="M128.641 17.4624L127.977 25.6154C125.438 24.0064 122.379 23.2004 118.796 23.2004C115.213 23.2004 112.213 24.3184 109.797 26.5524C107.381 28.7864 106.175 31.6954 106.175 35.2784C106.175 38.8634 107.401 41.7604 109.859 43.9744C112.314 46.1884 115.392 47.2964 119.098 47.2964C123.084 47.2964 126.244 46.5314 128.578 45.0014L127.793 53.3954C125.457 54.7644 122.095 55.4504 117.709 55.4504C115.132 55.4504 112.605 55.0054 110.128 54.1204C107.654 53.2354 105.408 51.9774 103.395 50.3474C101.383 48.7154 99.7609 46.5924 98.5349 43.9744C97.3059 41.3574 96.6919 38.4594 96.6919 35.2784C96.6919 31.0514 97.7579 27.3684 99.8939 24.2274C102.027 21.0864 104.653 18.7824 107.774 17.3134C110.892 15.8434 114.205 15.1084 117.709 15.1084C122.298 15.1074 125.942 15.8924 128.641 17.4624Z" fill="#361041"/>
<path d="M173.991 35.2194C173.991 41.2174 171.928 46.0874 167.802 49.8324C163.674 53.5774 158.813 55.4504 153.218 55.4504C147.662 55.4504 142.819 53.5774 138.693 49.8324C134.567 46.0874 132.504 41.2174 132.504 35.2194C132.504 29.2994 134.567 24.4684 138.693 20.7234C142.819 16.9814 147.662 15.1084 153.218 15.1084C156.801 15.1084 160.162 15.9154 163.302 17.5244C166.443 19.1334 169.008 21.5014 171.001 24.6214C172.994 27.7384 173.991 31.2714 173.991 35.2194ZM164.508 35.2194C164.508 31.7564 163.383 28.9064 161.127 26.6724C158.871 24.4394 156.237 23.3204 153.217 23.3204C150.197 23.3204 147.57 24.4384 145.337 26.6724C143.1 28.9054 141.984 31.7564 141.984 35.2194C141.984 38.7204 143.1 41.5884 145.337 43.8244C147.57 46.0564 150.197 47.1764 153.217 47.1764C156.237 47.1764 158.871 46.0574 161.127 43.8244C163.383 41.5884 164.508 38.7204 164.508 35.2194Z" fill="#361041"/>
<path d="M215.6 54.9654H210.889L195.912 38.5384C193.819 36.2424 191.423 33.4284 188.724 30.0844L188.604 30.1454C188.724 32.8854 188.786 35.5814 188.786 38.2374V54.5444H179.427V16.0154H186.976L200.019 30.3874C202.474 33.0824 204.567 35.5404 206.299 37.7544L206.42 37.6924C206.299 35.3984 206.238 33.0044 206.238 30.5074V16.0154H215.6V54.9654Z" fill="#361041"/>
<path d="M245.25 23.6844H231.603V31.3544H242.835V39.1434H231.603V54.5444H222.244V16.0154H245.251V23.6844H245.25Z" fill="#361041"/>
<path d="M259.441 54.5434H250.079V16.0154H259.441V54.5434Z" fill="#361041"/>
<path d="M302.86 54.9654H298.15L283.172 38.5384C281.078 36.2424 278.684 33.4284 275.984 30.0844L275.865 30.1454C275.984 32.8854 276.047 35.5814 276.047 38.2374V54.5444H266.687V16.0154H274.236L287.279 30.3874C289.734 33.0824 291.828 35.5404 293.56 37.7544L293.68 37.6924C293.56 35.3984 293.497 33.0044 293.497 30.5074V16.0154H302.859V54.9654H302.86Z" fill="#361041"/>
<path d="M337.13 21.2694C341.136 24.7704 343.141 29.4424 343.141 35.2784C343.141 41.1164 341.136 45.7864 337.13 49.2894C333.124 52.7904 328.242 54.5444 322.487 54.5444H309.503V16.0154H322.487C328.243 16.0154 333.125 17.7654 337.13 21.2694ZM330.248 43.5804C332.602 41.6294 333.779 38.8624 333.779 35.2774C333.779 31.6944 332.601 28.9274 330.248 26.9744C327.892 25.0234 324.943 24.0444 321.399 24.0444H318.502V46.5104H321.399C324.943 46.5104 327.891 45.5334 330.248 43.5804Z" fill="#361041"/>
<path d="M372.73 54.5434H348.574V16.0154H371.039V23.6844H357.934V31.3544H368.623V39.1434H357.934V46.8734H372.731V54.5434H372.73Z" fill="#361041"/>
<path d="M410.411 54.5434H399.962L389.576 39.3824H386.256V54.5434H377.258V16.0154H391.629C395.05 16.0154 397.98 17.0814 400.417 19.2144C402.853 21.3504 404.068 24.1664 404.068 27.6704C404.068 29.8424 403.505 31.7954 402.378 33.5274C401.251 35.2574 399.843 36.5254 398.151 37.3324L410.411 54.5434ZM395.072 27.6704C395.072 26.3014 394.597 25.2444 393.651 24.4974C392.706 23.7524 391.568 23.3824 390.241 23.3824H386.256V32.0174H390.241C391.568 32.0174 392.706 31.6464 393.651 30.8994C394.597 30.1564 395.072 29.0784 395.072 27.6704Z" fill="#361041"/>
<path d="M30.1074 29.2461C31.8374 29.8511 33.0774 31.4971 33.0774 33.4341C33.0774 35.8891 31.0924 37.8721 28.6394 37.8721C26.7024 37.8721 25.0564 36.6341 24.4514 34.9011C23.9084 36.1781 23.6094 37.5831 23.6094 39.0551C23.6094 44.9411 28.3794 49.7071 34.2604 49.7071C40.1434 49.7071 44.9124 44.9401 44.9124 39.0551C44.9124 33.1741 40.1434 28.4031 34.2604 28.4031C32.7884 28.4041 31.3834 28.7051 30.1074 29.2461Z" fill="#361041"/>
<path d="M25.394 13.319L25.399 13.314C29.15 10.582 33.771 8.968 38.7701 8.968C41.563 8.968 44.2191 9.403 46.687 10.329C46.847 10.386 47.059 10.424 47.155 10.424C47.743 10.424 48.1771 10.019 48.18 9.446C48.181 9.055 47.988 8.731 47.739 8.5C41.202 2.484 34.26 0 34.26 0C18.768 6.194 7.37505 21.179 7.04805 38.301C6.90805 43.172 8.07105 48.139 10.687 52.667C12.239 55.356 14.181 57.679 16.397 59.606C12.155 57.721 8.45005 54.526 5.95005 50.198C4.55305 47.779 3.60005 45.26 3.16905 42.662C3.14005 42.494 3.06605 42.293 3.01805 42.209C2.72405 41.698 2.15705 41.525 1.65905 41.812C1.31905 42.004 1.13605 42.334 1.06305 42.666C-0.882952 51.335 0.438048 58.589 0.438048 58.589C13.74 69.059 32.771 71.35 47.8731 62.631C54.9761 58.527 59.5331 51.711 60.9841 44.243L60.988 44.253C61.477 48.871 60.563 53.676 58.064 58.006C56.668 60.424 54.965 62.51 52.9291 64.184C52.798 64.291 52.66 64.457 52.612 64.539C52.3181 65.047 52.451 65.629 52.946 65.916C53.284 66.113 53.66 66.105 53.9841 66.006C62.465 63.356 68.087 58.584 68.087 58.584C70.462 42.12 63.23 24.811 48.6521 15.945C41.806 11.691 33.251 10.602 25.394 13.319ZM56.4081 34.004C56.6281 35.095 56.7491 36.218 56.7491 37.359C56.7491 48.104 46.6811 56.809 34.2611 56.809C21.8411 56.809 11.774 48.104 11.774 37.359C11.774 36.217 11.895 35.094 12.114 34.004C16.781 29.219 24.9521 26.038 34.2611 26.038C43.569 26.038 51.7401 29.219 56.4081 34.004Z" fill="#361041"/>
</g>
<defs>
<clipPath id="clip0_11_122">
<rect width="410.412" height="68" fill="white"/>
</clipPath>
</defs>
</svg>
