<svg width="775" height="775" viewBox="0 0 775 775" fill="none" xmlns="http://www.w3.org/2000/svg">
<g clip-path="url(#clip0_11_149)">
<path d="M464.285 506.075L362.521 491.263L290.041 451.297L261.596 391.298L287.393 333.505L335.01 316.8L394.213 336.801L396.474 295.768L427.415 262.51L467.615 255.492L504.308 286.014L519.638 342.42L491.688 450.224L464.285 506.075Z" fill="#FFBBBC"/>
<path d="M127.651 452.76L170.37 477.98L161.093 533.546L202.839 523.483L247.333 501.656L267.321 435.641L218.328 406.402L127.651 452.76Z" fill="#F41870"/>
<path d="M542.182 242.869C535.388 241.471 514.682 236.008 510.729 244.862C506.776 253.716 527.335 267.059 533.226 270.635C543.065 276.002 552.378 282.283 561.04 289.394C548.184 297.767 534.49 304.779 520.182 310.318C512.121 277.767 480.609 243.297 444.004 248.826C426.403 252.036 410.557 261.506 399.394 275.487C388.23 289.468 382.502 307.017 383.268 324.892C358.894 303.305 312.845 307.33 287.285 324.527C272.528 334.542 261.712 349.375 256.689 366.486C251.667 383.598 252.749 401.924 259.752 418.325C249.14 422.718 238.201 408.4 228.509 403.39C223.013 401.313 217.112 400.532 211.266 401.109C205.419 401.687 199.784 403.606 194.801 406.718C180.595 412.599 166.731 418.338 153.476 426.03C144.405 429.785 122.154 438.996 119.181 449.249C116.208 459.502 136.808 467.614 145.007 471.438C148.224 472.913 161.28 477.332 162.756 479.929C164.232 482.526 158.019 500.936 156.94 505.593C154.48 515.633 144.496 538.01 159.648 542.163C164.71 542.684 169.824 542.202 174.699 540.745C178.636 539.115 182.413 538.554 186.491 537.267C187.518 536.841 199.311 533.363 193.851 534.22C207.815 530.046 221.189 524.106 233.648 516.543C241.571 513.456 248.68 508.593 254.428 502.327C261.252 489.615 266.431 476.085 269.839 462.065C273.237 452.84 272.41 446.967 281.058 453.812C306.82 476.655 337.653 493.031 371.004 501.585C398.291 507.932 432.477 507.213 456.542 514.493C459.158 515.576 462.007 515.975 464.82 515.653C467.633 515.33 470.317 514.297 472.62 512.649C479.318 506.067 482.615 491.27 486.439 483.071C497.992 458.119 507.395 432.227 514.547 405.676C518.31 392.49 521.106 378.902 523.731 365.386C524.509 361.455 523.681 349.768 526.225 346.71C528.181 345.5 530.319 344.615 532.558 344.089C546.593 338.279 560.799 332.398 575.005 326.518C574.43 338.813 572.781 351.034 570.075 363.042C568.849 369.765 563.304 395.116 569.732 400.474C582.961 410.636 600.49 366.29 604.686 357.536C611.631 342.832 617.85 327.828 624.865 313.295L635.392 290.293C637.569 285.382 644.515 276.492 636.682 274.522C605.357 264.232 574.598 249.499 542.182 242.869ZM188.878 429.219C195.507 428.279 202.331 435.078 208.092 439.309C214.401 443.706 221 447.672 227.843 451.182C222.857 453.65 217.71 455.78 212.438 457.558C209.649 459.315 206.582 460.585 203.367 461.313C198.737 459.409 194.288 457.09 190.074 454.386C181.32 450.191 173.239 444.714 164.385 440.761C171.88 435.63 179.96 431.41 188.453 428.192L188.878 429.219ZM143.511 452.811C155.545 449.433 156.429 442.852 168.554 449.862C180.678 456.872 188.009 460.052 197.772 465.233C193.239 465.907 189.043 468.847 184.936 470.547C180.828 472.247 181.512 471.964 176.347 468.689C165.079 461.325 153.646 457.437 143.086 451.784L143.511 452.811ZM182.068 521.254C178.205 523.353 174.132 525.039 169.916 526.285C171.84 516.082 174.361 506.001 177.467 496.093C178.806 490.126 179.513 480.21 183.726 475.859C187.94 471.509 196.05 470.758 200.842 468.774C196.492 478.59 192.989 488.76 190.37 499.172C186.634 506.132 185.155 517.571 182.068 521.254ZM188.23 518.704C194.425 503.492 199.696 487.92 204.012 472.073C207.723 463.119 220.059 459.015 229.13 455.26C220.84 472.525 217.159 492.694 209.908 510.532C202.076 514.375 194.775 516.595 187.445 519.229L188.23 518.704ZM246.574 478.512C244.81 483.453 241.643 497.595 236.508 499.721C231.373 501.846 222.987 505.318 216.312 508.081C221.35 496.946 225.424 485.4 228.489 473.569C230.038 467.446 231.965 461.426 234.259 455.542C237.723 448.896 246.948 446.481 253.953 442.578C254.891 455.271 252.05 467.957 245.789 479.038L246.574 478.512ZM251.243 437.485C246.57 442.23 240.705 445.628 234.264 447.321C232.552 448.029 228.514 444.087 226.75 443.214C216.048 437.218 206.975 429.346 196.444 423.28C202.245 420.074 208.388 417.531 214.758 415.699C223.694 415.007 235.518 422.743 243.474 426.466C245.918 429.464 251.266 433.666 250.458 438.01L251.243 437.485ZM508.839 322.631C510.998 359.576 504.613 396.522 490.179 430.599C482.208 451.541 474.592 473.34 465.652 493.881C463.133 498.934 464.815 498.638 460.17 498.556C455.525 498.474 396.92 491.057 381.195 487.943C353.258 482.1 327.256 469.275 305.617 450.663C293.431 441.446 284.189 428.883 279.02 414.504C273.852 400.126 272.978 384.554 276.507 369.687C279.282 358.274 285.602 348.033 294.559 340.435C303.516 332.837 314.651 328.272 326.364 327.396C340.179 326.002 354.12 328.168 366.861 333.689C374.205 336.607 381.134 340.48 387.467 345.207C392.19 348.866 398.636 358.627 402.247 349.915C405.858 341.203 401.324 330.249 401.6 321.714C402.217 311.144 405.222 300.851 410.39 291.611C415.525 283.225 422.864 276.409 431.606 271.907C440.347 267.404 450.157 265.388 459.966 266.076C487.507 267.708 506.032 297.931 508.054 323.157L508.839 322.631Z" fill="#361041"/>
<path d="M350.441 378.713C349.754 367.173 340.504 358.335 329.781 358.973C319.057 359.612 310.922 369.485 311.609 381.025C312.296 392.565 321.546 401.403 332.269 400.764C342.992 400.126 351.128 390.253 350.441 378.713Z" fill="white"/>
<path d="M341.656 400.66C346.535 396.813 350.091 391.537 351.826 385.571C353.562 379.605 353.391 373.246 351.337 367.381C348.101 355.689 328.245 352.281 319.268 358.202C314.443 362.428 311.139 368.122 309.866 374.409C308.593 380.695 309.42 387.226 312.22 392.997C313.611 395.472 315.487 397.642 317.736 399.375C319.985 401.109 322.561 402.371 325.309 403.086C328.057 403.802 330.921 403.955 333.729 403.539C336.538 403.122 339.234 402.143 341.656 400.66ZM335.701 363.028C338.239 363.434 340.617 364.528 342.577 366.191C344.538 367.853 346.006 370.021 346.822 372.458C350.732 388.683 333.052 411.84 318.659 393.539C308.984 381.305 317.521 355.918 335.417 362.343L335.701 363.028Z" fill="#361041"/>
<path d="M359.682 449.534C367.623 446.247 371.395 437.146 368.108 429.205C364.821 421.265 355.72 417.493 347.779 420.78C339.839 424.067 336.067 433.168 339.354 441.108C342.641 449.049 351.742 452.821 359.682 449.534Z" fill="white"/>
<path d="M336.832 434.534C336.911 449.738 350.925 459.374 363.902 448.589C366.11 446.804 367.878 444.535 369.07 441.957C370.261 439.38 370.844 436.563 370.773 433.724C370.703 430.886 369.981 428.101 368.663 425.586C367.345 423.071 365.466 420.893 363.172 419.219C360.46 417.946 357.48 417.35 354.488 417.481C351.495 417.612 348.578 418.467 345.989 419.973C343.399 421.479 341.213 423.59 339.618 426.126C338.023 428.662 337.067 431.547 336.832 434.534ZM364.35 439.983C362.652 443.465 359.659 446.143 356.011 447.445C354.312 447.996 352.507 448.143 350.741 447.874C348.976 447.606 347.297 446.929 345.838 445.898C344.38 444.866 343.182 443.509 342.34 441.934C341.498 440.359 341.035 438.609 340.988 436.823C340.337 422.658 360.687 415.637 365.34 430.752C366.11 433.85 365.759 437.12 364.35 439.983Z" fill="#361041"/>
<path d="M381.102 405.382C387.057 402.917 389.886 396.091 387.421 390.135C384.956 384.18 378.129 381.351 372.174 383.816C366.219 386.281 363.39 393.107 365.855 399.063C368.32 405.018 375.146 407.847 381.102 405.382Z" fill="white"/>
<path d="M367.691 405.921C382.697 417.954 398.671 393.097 384.817 382.392C370.962 371.687 354.976 395.546 367.691 405.921ZM384.865 392.196C385.199 394.197 384.987 396.251 384.253 398.142C383.52 400.033 382.29 401.692 380.694 402.944C371.387 410.005 362.348 393.497 374.175 387.198C378.856 384.459 383.684 385.467 384.865 392.196Z" fill="#361041"/>
<path d="M522.851 320.64C522.851 320.64 521.549 335.414 525.828 333.643C546.081 323.554 567.013 314.889 588.471 307.711C594.711 314.551 575.679 379.969 579.109 381.958C582.538 383.946 617.367 296.15 622.778 285.49C613.181 282.647 543.187 252.076 533.454 252.296C526.98 260.389 584.466 283.506 587.743 289.969C591.019 296.432 522.851 320.64 522.851 320.64Z" fill="#F41870"/>
</g>
<defs>
<clipPath id="clip0_11_149">
<rect width="592.775" height="592.775" fill="white" transform="translate(0 226.725) rotate(-22.4874)"/>
</clipPath>
</defs>
</svg>
