<svg width="671" height="399" viewBox="0 0 671 399" fill="none" xmlns="http://www.w3.org/2000/svg">
<g clip-path="url(#clip0_11_190)">
<path d="M149.51 139.259L198.85 170.228L275.62 161.439L313.307 143.526L278.135 50.6812L214.605 17.7212L187.758 39.4503L148.457 109.774L149.51 139.259Z" fill="#FFBBBC"/>
<path d="M224.03 -68.3187L244.875 -31.9666L270.807 -0.93787L284.299 1.40374L295.601 -5.54245L294.449 -19.0254L281.525 -45.6849L287.316 -48.9138L356.719 -14.4314L356.435 11.423L359.618 54.1784L374.858 84.6053L396.652 109.565L431.086 131.559L467.931 139.92L505.02 134.097L535.028 118.998L559.003 94.2713L577.277 53.6277L579.172 1.7059L556.636 -40.3717L522.538 -67.6065L492.174 -82.6925L456.739 -85.8171L418.542 -76.3573L389.875 -55.8813L374.036 -46.8273L329.269 -65.5803L297.364 -82.1298L299.794 -88.4247L330.663 -94.3723L338.609 -102.288L338.72 -113.748L325.483 -125.733L298.716 -127.692L234.013 -127.388L208.389 -119.358L204.997 -106.562L224.03 -68.3187Z" fill="#F41870"/>
<path d="M342.11 -99.5019C343.689 -102.926 344.209 -106.744 343.602 -110.465C342.995 -114.187 341.289 -117.642 338.703 -120.386C323.913 -138.726 286.551 -130.595 265.868 -130.403C247.345 -132.503 228.588 -130.23 211.103 -123.766C196.658 -116.114 201.937 -101.104 207.487 -89.0994C220.201 -56.7755 238.937 -27.1597 262.7 -1.82556C253.025 -5.12653 242.971 -7.19063 232.778 -7.96873C204.667 -9.06733 176.944 -1.13688 153.667 14.6612C137.116 30.4912 124.423 49.9113 116.567 71.4236C108.246 96.24 109.008 123.205 118.716 147.512C134.904 193.588 194.029 225.581 242.088 219.8C264.762 217.658 286.089 208.071 302.741 192.535C309.014 186.58 313.458 175.528 322.965 177.111C337.535 181.907 351.341 188.766 363.963 197.481C366.622 198.802 378.86 202.614 379.915 205.406C380.97 208.199 373.867 217.58 372.963 219.399C368.095 226.605 364.959 234.84 363.8 243.459C364.663 252.96 380.823 260.465 389.074 262.82C404.318 267.254 407.218 253.341 413.13 242.496C414.59 239.557 420.638 227.384 423.919 226.397C427.201 225.411 433.852 230.285 436.999 231.675C444.695 235.498 455.05 240.643 463.353 235.87C468.518 232.916 472.451 228.207 474.438 222.598C476.424 216.989 476.331 210.854 474.176 205.308C470.318 199.378 444.713 187.354 446.938 182.877C451.935 169.308 468.876 154.173 454.659 141.352C474.549 144.269 494.856 141.936 513.566 134.583C532.276 127.231 548.739 115.114 561.322 99.4363C589.594 61.1432 594.186 -1.8257 562.088 -39.7564C531.325 -74.4064 480.948 -100.831 432.144 -85.4753C421.376 -82.3041 411.16 -77.494 401.855 -71.214C392.856 -65.0423 382.412 -50.3421 370.46 -51.919C356.824 -56.4575 343.714 -62.4447 331.355 -69.7779C321.378 -72.9731 311.942 -77.661 303.369 -83.6821C314.188 -88.6007 334.807 -86.2073 342.11 -99.5019ZM295.676 134.417C260.975 144.916 224.836 167.088 188.12 154.603C170.427 148.779 151.515 130.659 159.009 109.957C166.503 89.2551 195.362 89.4616 214.935 92.9059C193.807 82.4082 180.973 36.2534 214.504 33.0242C219.929 33.0031 225.285 34.2491 230.143 36.663C235.002 39.0769 239.229 42.592 242.489 46.9284C254.377 60.5202 264.488 75.5688 272.579 91.7119C280.58 105.806 287.884 120.252 295.396 134.278L295.676 134.417ZM423.677 130.669C418.871 133.4 415.247 137.816 413.507 143.063C411.074 147.96 409.356 159.494 404.892 162.51C396.451 168.261 377.97 154.542 369.854 150.51C359.959 147.034 350.677 142.01 342.355 135.626C337.59 130.118 340.575 122.355 341.537 115.854C342.688 106.024 342.521 96.0842 341.043 86.2981C338.278 69.3959 331.702 53.345 321.811 39.3625C311.921 25.3801 298.977 13.8331 283.96 5.59726C313.712 -0.207762 292.743 -30.69 285.09 -45.1348C297.027 -41.7049 308.373 -36.4795 318.739 -29.6378C329.354 -25.4119 339.603 -20.3197 349.383 -14.4127C354.983 -10.2344 354.144 -10.6515 353.742 -3.52327C353.334 0.809997 352.855 4.93384 352.657 9.19671C351.866 18.8616 352.125 28.5837 353.429 38.1928C356.906 58.0953 365.098 76.8759 377.32 92.9643C389.541 109.053 405.437 121.981 423.677 130.669ZM342.01 -56.1094C350.597 -50.0087 360.329 -45.7076 370.621 -43.4645C380.894 -42.7219 387.024 -50.4935 394.485 -56.3819C408.212 -67.95 424.507 -76.0654 442.01 -80.05C462.988 -83.2569 484.444 -80.6914 504.074 -72.6287C523.705 -64.566 540.769 -51.3104 553.437 -34.2843C565.045 -18.5294 572.047 0.140706 573.664 19.6432C575.28 39.1458 571.446 58.7139 562.59 76.1648C554.604 94.1204 541.409 109.264 524.716 119.634C508.023 130.005 488.601 135.124 468.965 134.328C449.896 133.156 431.391 127.394 415.027 117.532C398.664 107.671 384.925 94.0012 374.98 77.6875C363.152 57.6079 358.233 34.2045 360.976 11.0623C361.376 3.23528 365.953 -10.5416 360.347 -16.8162C355.192 -20.5112 349.475 -23.3516 343.416 -25.2282C336.979 -28.4262 330.543 -31.6241 323.966 -34.8916C313.472 -40.1057 296.528 -53.409 284.304 -51.9805C272.079 -50.5521 278.471 -37.4318 283.238 -31.225C288.006 -25.0182 298.6 -8.06537 284.569 -2.30015C270.539 3.46509 262.737 -14.5429 257.128 -22.2149C241.025 -45.2008 226.669 -69.3626 214.182 -94.4967C212.708 -97.1482 206.392 -107.963 209.94 -114.051C215.86 -121.403 231.788 -122.91 241.431 -123.005C254.285 -123.946 267.284 -123.07 280.211 -123.103C293.138 -123.136 331.063 -129.59 335.584 -110.596C340.104 -91.601 302.701 -99.1926 295.041 -89.0414C285.292 -75.7405 334.313 -60.2824 342.641 -55.2725L342.01 -56.1094Z" fill="#361041"/>
<path d="M434.664 -1.003C436.771 2.71658 439.237 6.22084 442.027 9.45961C411.408 4.01695 377.186 38.1326 398.012 67.1479C418.838 96.1632 463.47 88.8531 492.299 77.181C507.027 71.0646 521.194 63.9714 535.29 56.6687C542.477 52.7376 539.748 51.2072 536.796 44.5067L531.734 32.2215C530.257 28.5219 528.571 24.8926 526.745 21.1939C518.262 1.62136 507.571 -16.9188 494.882 -34.0664C483.457 -47.9426 461.623 -61.2335 443.759 -51.6154C425.896 -41.9974 425.819 -16.9121 434.664 -1.003Z" fill="#361041"/>
<path d="M524.996 47.8905C524.996 47.8905 421.016 100.909 408.882 55.1019C398.793 16.7661 465.116 21.2799 465.116 21.2799C465.116 21.2799 423.499 -22.7758 455.324 -37.6698C487.149 -52.5638 524.996 47.8905 524.996 47.8905Z" fill="#FFBBBC"/>
</g>
<defs>
<clipPath id="clip0_11_190">
<rect width="499.982" height="499.982" fill="white" transform="translate(0 175.762) rotate(-63.5799)"/>
</clipPath>
</defs>
</svg>
