<svg width="277" height="326" viewBox="0 0 277 326" fill="none" xmlns="http://www.w3.org/2000/svg">
<path d="M235.071 201.289C290.983 201.289 336.309 155.963 336.309 100.051C336.309 44.1393 290.983 -1.18628 235.071 -1.18628C179.159 -1.18628 133.834 44.1393 133.834 100.051C133.834 155.963 179.159 201.289 235.071 201.289Z" fill="white"/>
<path d="M210.819 0.816249L173.105 23.5112L141.176 55.3287L118.926 105.502L121.485 154.564L142.511 200.287L183.785 225.652H226.06L268.001 197.951L289.361 180.262L291.03 193.167L279.683 231.326L250.09 267.927L194.243 295.851H133.278L84.8838 277.05L49.6175 238.224L29.9263 183.934V134.984L43.0538 87.48L70.0875 51.5462L111.028 18.06L165.429 -0.184999L193.909 -4.96875L210.819 0.816249Z" fill="#FFBBBC"/>
<path d="M241.635 86.3675C236.95 78.6117 230.115 72.3816 221.96 68.4323C213.804 64.4831 204.679 62.9842 195.689 64.1175C177.221 68.2337 170.657 92.1525 175.219 108.617C179.78 125.082 199.916 139.879 214.935 149.335C230.699 159.376 247.128 168.334 264.107 176.146C276.634 149.781 287.086 122.479 295.369 94.4887C298.595 80.3599 300.375 60.1125 289.25 49.0987C278.125 38.085 263.551 44.4262 253.984 52.1025C249.676 56.6554 246.356 62.0491 244.231 67.9455C242.106 73.8418 241.222 80.1135 241.635 86.3675Z" fill="#361041"/>
<path d="M165.763 181.375C164.761 184.379 165.763 183.822 167.876 186.937C171.103 182.71 174.551 178.705 178 174.7C181.449 170.695 184.341 170.25 179.891 165.244C177.444 168.136 174.774 171.029 172.215 173.921C169.656 176.814 166.875 178.816 165.763 181.375Z" fill="#FFBBBC"/>
<path d="M209.818 195.393C207.481 200.621 207.148 199.954 212.376 202.401C214.156 198.508 216.493 194.614 218.05 190.609C219.608 186.604 220.386 186.159 215.603 183.934C213.6 187.716 211.375 191.499 209.818 195.393Z" fill="#FFBBBC"/>
<path d="M144.625 149.891C148.443 148.017 152.157 145.938 155.75 143.661C159.866 140.435 159.533 142.437 157.085 137.097C152.718 139.076 148.547 141.46 144.625 144.217C144.625 144.217 142.066 145.219 141.844 145.997C141.621 146.776 142.734 150.892 144.625 149.891Z" fill="#FFBBBC"/>
<path d="M141.288 103.5C138.173 104.501 138.618 102.499 138.395 103.5C138.395 103.5 138.395 107.728 138.395 108.284H147.629C146.961 103.5 146.739 101.498 141.288 103.5Z" fill="#FFBBBC"/>
<path d="M257.655 4.59884C257.91 2.15796 257.91 -0.302786 257.655 -2.74366C256.876 -3.74491 252.538 -3.85616 252.426 -2.74366C251.87 3.37509 251.091 9.71634 251.091 15.9463C252.905 16.1062 254.729 16.1062 256.543 15.9463C257.331 12.2165 257.704 8.41081 257.655 4.59884Z" fill="#FFBBBC"/>
<path d="M209.373 36.7499C213.711 34.7474 213.378 35.9711 212.821 31.7436C211.681 27.1945 210.116 22.7622 208.149 18.5049C203.254 20.8411 202.92 19.7286 204.589 25.2911C205.034 26.2924 208.483 36.7499 209.373 36.7499Z" fill="#FFBBBC"/>
<path d="M197.914 -9.53001C189.929 -10.42 181.869 -10.42 173.884 -9.53001C155.768 -6.8475 138.125 -1.60338 121.485 6.04499C89.76 19.6638 62.9153 42.5904 44.5001 71.7937C25.0934 104.826 17.2633 143.39 22.2501 181.375C25.2695 211.003 37.2188 239.014 56.5151 261.697C79.1598 286.045 109.556 301.774 142.511 306.197C202.698 314.207 272.006 276.382 291.92 217.197C293.255 213.192 303.045 169.805 288.583 176.369C277.458 180.93 266.333 194.057 255.208 201.511C241.162 212.903 223.776 219.389 205.701 219.979C195.133 220.041 184.68 217.793 175.071 213.392C165.463 208.992 156.932 202.545 150.076 194.502C138.281 181.152 130.898 164.483 128.939 146.776C129.606 150.447 128.271 140.435 128.16 139.211C128.16 134.984 128.16 130.756 128.16 126.529C128.092 119.083 128.613 111.643 129.718 104.279C133.139 86.1553 140.759 69.0856 151.968 54.4387C162.5 40.8017 175.249 29.0309 189.681 19.6175C196.637 14.9024 204.1 10.9841 211.931 7.93624C216.493 6.15624 232.179 3.59749 225.504 -4.41251C218.94 -9.41876 204.144 -8.97376 197.914 -9.53001ZM111.806 144.217C120.15 189.83 150.966 235.331 201.474 235.887C219.198 235.363 236.407 229.807 251.091 219.867C257.861 215.576 264.097 210.498 269.67 204.737C274.674 198.526 280.429 192.958 286.803 188.161C284.613 206.973 277.387 224.845 265.888 239.892C251.425 262.142 224.948 274.157 201.14 284.392C205.813 282.39 198.915 285.06 198.025 285.394C195.336 286.414 192.586 287.268 189.793 287.952C184.564 289.065 178.668 289.732 173.884 290.4C162.047 292.181 150.01 292.181 138.173 290.4C119.732 287.795 102.349 280.219 87.8876 268.484C59.7411 246.02 41.4947 213.44 37.0464 177.704C31.4839 143.327 41.6076 91.5962 65.7489 67.455C80.1243 49.5414 98.2838 35.029 118.926 24.9575C143.846 11.4974 171.257 3.2816 199.471 0.816239C143.735 21.175 100.904 84.2537 111.806 144.217Z" fill="#361041"/>
<path d="M169.99 54.55C164.539 50.4338 164.761 50.3225 160.756 55.5513C162.648 56.9975 165.318 60.5575 167.098 58.2213L169.99 54.55Z" fill="#FFBBBC"/>
<path d="M257.321 159.125C257.321 159.125 163.093 123.08 190.571 79.6925C206.258 61.225 248.088 105.169 248.088 105.169C248.088 105.169 249.2 51.2125 274.009 55.885C304.714 62.0037 257.321 159.125 257.321 159.125Z" fill="#F41870"/>
</svg>
