<svg width="480" height="604" viewBox="0 0 480 604" fill="none" xmlns="http://www.w3.org/2000/svg">
<g clip-path="url(#clip0_11_137)">
<path d="M275.657 549.614L279.191 568.964C281.785 577.443 283.012 586.281 282.825 595.146C281.315 600.441 278.281 603.826 273.039 598.963C267.798 594.099 269.447 584.374 268.141 579.069C266.834 573.765 266.446 566.475 265.227 560.094C264.834 555.299 263.677 550.598 261.798 546.169C259.163 541.895 258.041 543.05 252.083 541.704C239.749 538.414 228.13 532.869 217.814 525.351C196.46 510.037 188.809 483.964 173.27 463.702C214.029 459.996 241.02 485.35 257.46 519.984C254.276 507.053 260.329 481.65 252.123 471.891C238.811 454.245 219.984 427.056 195.265 426.637C180.398 426.957 159.674 432.764 150.955 415.921C142.236 399.079 158.087 389.901 172.576 390.905C163.751 380.77 164.721 364.003 180.419 362.775C196.117 361.547 201.977 378.918 206.285 389.989C218.152 418.188 240.572 436.404 256.175 461.926C258.62 449.861 260.432 437.677 261.605 425.423C258.808 413.591 253.728 402.419 246.649 392.534C242.134 380.705 236.561 369.307 229.999 358.479C223.414 351.09 215.137 345.406 205.876 341.913C187.234 332.613 165.536 320.9 161.643 297.947C157.274 268.78 190.542 263.929 206.833 282.248C203.486 268.654 207.123 247.011 223.862 244.296C244.704 240.394 253.313 264.648 252.965 281.086C250.994 296.999 248.006 312.77 244.019 328.301C239.903 356.568 256.266 378.034 265.49 404.07C270.587 380.154 277.367 356.627 285.781 333.666C289.016 327.518 290.008 320.435 288.585 313.635L284.503 297.057C281.295 282.009 277.172 267.17 272.155 252.624C269.624 242.346 258.048 237.46 249.577 232.337C237.143 225.874 226.528 216.398 218.702 204.774C214.538 199.849 212.264 193.602 212.287 187.153C212.31 180.704 214.628 174.473 218.826 169.578C221.818 167.34 225.223 165.716 228.845 164.798C232.467 163.881 236.234 163.689 239.93 164.233C243.627 164.777 247.179 166.047 250.383 167.969C253.587 169.891 256.379 172.428 258.599 175.433C259.725 161.441 265.883 141.463 284.448 149.024C306.156 157.921 302.457 185.03 295.317 201.733C287.242 215.023 283.203 230.373 283.69 245.916C287.37 265.856 292.222 285.563 298.222 304.932C304.219 293.341 310.91 282.123 318.259 271.338C322.109 266.864 325.446 261.973 328.207 256.757C330.465 244.219 330.984 231.429 329.749 218.75C331.463 205.823 331.897 192.76 331.047 179.748C328.243 167.302 322.378 155.753 313.982 146.147C304.901 134.555 298.973 120.812 296.774 106.252C296.086 99.5539 297.962 92.8444 302.022 87.4733C306.082 82.1022 312.025 78.4681 318.657 77.3024C332.824 75.5721 340.283 85.8677 345.336 97.1071C363.755 64.0876 396.771 95.3433 380.19 123.69C370.109 140.59 346.912 154.918 344.278 173.501C340.924 197.009 343.53 221.159 338.89 245.159C352.406 228.644 366.004 212.46 379.724 196.774C394.316 184.689 404.911 168.473 410.117 150.256C414.211 128.324 418.578 99.6442 442.299 89.5834C471.493 77.4716 474.803 113.053 466.164 132.235C472.639 129.067 480.049 128.376 486.998 130.292C493.947 132.208 499.955 136.599 503.891 142.638C514.438 157.624 504.329 170.839 488.78 176.953C469.797 181.979 449.355 178.221 428.727 180.136C398.527 183.88 371.095 224.569 352.178 246.283C376.713 240.241 408.341 242.299 428.075 223.901C444.932 210.959 470.271 176.763 495.94 189.608C514.291 199.155 501.589 219.69 489.097 227.513C492.497 228.169 495.667 229.698 498.298 231.948C500.928 234.199 502.929 237.095 504.103 240.351C505.277 243.608 505.585 247.114 504.996 250.526C504.407 253.937 502.941 257.137 500.743 259.811C481.948 282.022 455.357 260.437 435.468 252.499C411.817 242.85 393.406 250.197 369.251 254.211C359.947 254.274 350.709 255.778 341.865 258.668C336.843 261.839 332.748 272.342 328.92 277.504C320.373 290.894 312.703 304.823 305.956 319.204C333.48 311.02 363.346 308.061 387.171 291.997C401.034 282.605 424.375 263.143 442.399 271.364C460.424 279.586 450.428 296.113 438.972 303.857C444.945 306.266 449.89 310.685 452.954 316.35C456.018 322.015 457.009 328.572 455.756 334.89C452.976 340.6 448.247 345.129 442.422 347.659C436.597 350.19 430.059 350.555 423.989 348.69C397.175 343.336 376.616 314.112 349.263 320.848C336.256 322.292 322.701 326.509 309.814 329.155C306.727 329.384 303.701 330.129 300.862 331.359C297.664 334.081 295.555 344.798 294.216 348.644C286.011 373.081 279.774 398.136 275.566 423.568C291.205 415.673 306.54 411.545 323.625 404.525C337.064 398.819 348.479 389.208 356.394 376.939C367.082 363.934 386.64 348.392 404.032 359.758C417.831 368.668 411.474 386.41 399.936 393.822C424.584 402.523 430.961 437.701 402.401 445.964C380.805 452.512 361.854 436.959 346.162 424.646C343.406 422.058 339.987 420.283 336.284 419.518C332.893 419.057 329.458 419.017 326.057 419.399C314.785 421.371 303.8 424.725 293.351 429.387C286.554 431.06 276.773 433.469 274.639 439.796C272.64 447.635 271.788 455.721 272.11 463.804C269.971 483.385 269.943 503.14 272.026 522.727C276.847 512.717 283.629 503.777 291.97 496.438C300.311 489.098 310.041 483.509 320.583 480.001C340.709 473.32 362.21 471.899 383.041 475.874C369.157 490.898 358.447 510.238 343.324 524.512C334.062 532.86 322.949 538.888 310.9 542.099C298.852 545.311 286.213 545.613 274.024 542.983C274.393 545.232 274.939 547.45 275.657 549.614Z" fill="#361041"/>
<path d="M384.951 310.829C384.951 310.829 433.443 344.956 441.356 332.106C449.269 319.256 422.356 307.07 422.356 307.07C422.356 307.07 444.809 292.574 434.158 283.592C423.506 274.61 384.951 310.829 384.951 310.829Z" fill="#F41870"/>
<path d="M437.015 236.645C437.015 236.645 485.356 266.589 489.51 251.324C493.663 236.06 467.217 232.198 467.217 232.198C467.217 232.198 497.188 211.103 485.086 202.654C472.983 194.206 437.015 236.645 437.015 236.645Z" fill="#F41870"/>
<path d="M423.615 162.23C423.615 162.23 490.863 173.276 489.362 152.898C487.861 132.52 450.309 142.821 450.309 142.821C450.309 142.821 466.659 97.8276 449.428 99.2572C428.428 101.088 423.615 162.23 423.615 162.23Z" fill="#F41870"/>
<path d="M335.332 150.737C335.332 150.737 377.529 115.027 368.301 101.827C359.072 88.6265 341.838 114.321 341.838 114.321C341.838 114.321 331.374 87.5345 315.371 93.2335C299.367 98.9324 335.332 150.737 335.332 150.737Z" fill="#F41870"/>
<path d="M269.177 228.39C269.177 228.39 296.985 174.949 284.097 166.166C271.209 157.383 263.314 200.295 263.314 200.295C263.314 200.295 233.629 163.999 227.402 180.126C219.714 199.602 269.177 228.39 269.177 228.39Z" fill="#F41870"/>
<path d="M228.133 335.906C228.133 335.906 247.968 265.79 231.675 259.604C215.382 253.418 216.493 302.2 216.493 302.2C216.493 302.2 181.572 271.062 176.575 290.754C171.578 310.446 228.133 335.906 228.133 335.906Z" fill="#F41870"/>
<path d="M349.658 408.138C349.658 408.138 395.059 449.707 403.711 427.005C410.19 409.76 381.124 397.401 381.124 397.401C381.124 397.401 406.322 379.767 394.099 370.117C381.877 360.468 349.658 408.138 349.658 408.138Z" fill="#F41870"/>
<path d="M208.552 416.333C208.552 416.333 169.327 419.837 162.695 410.042C156.063 400.246 189.52 400.447 189.52 400.447C189.52 400.447 170.639 376.612 183.233 374.918C195.827 373.223 208.552 416.333 208.552 416.333Z" fill="#F41870"/>
<path d="M281.774 529.47C297.346 531.759 313.227 528.471 326.61 520.188C341.158 512.053 353.06 499.907 360.896 485.196C297.249 485.923 281.774 529.47 281.774 529.47Z" fill="#FFBBBC"/>
<path d="M250.843 529.526C238.156 523.895 226.365 516.431 215.849 507.373C205.643 497.583 196.947 486.333 190.046 473.989C203.233 478.247 215.284 485.44 225.292 495.025C235.336 505.312 243.932 516.919 250.843 529.526Z" fill="#FFBBBC"/>
</g>
<defs>
<clipPath id="clip0_11_137">
<rect width="546.329" height="546.329" fill="white" transform="matrix(-0.239095 -0.970996 -0.970996 0.239095 661.108 530.484)"/>
</clipPath>
</defs>
</svg>
