<svg width="388" height="388" viewBox="0 0 388 388" fill="none" xmlns="http://www.w3.org/2000/svg">
<path d="M302.397 348.23C344.451 348.23 378.542 314.139 378.542 272.085C378.542 230.031 344.451 195.94 302.397 195.94C260.344 195.94 226.252 230.031 226.252 272.085C226.252 314.139 260.344 348.23 302.397 348.23Z" fill="white"/>
<path d="M130.101 188.544L113.611 204.306L116.643 223.343L150.835 255.231L170.72 258.02L187.574 240.681L235.225 244.198L286.271 230.739L324.95 195.94L340.713 138.831L314.644 74.9327L260.93 38.9215L207.216 34.314L153.866 60.7465L128.161 95.3027L117.006 130.95L130.101 188.544Z" fill="#FFBBBC"/>
<path d="M305.793 140.165C305.793 181.269 259.596 214.612 215.583 214.612C171.569 214.612 146.591 178.237 146.591 140.165C147.287 119.762 156.057 100.471 170.972 86.5335C185.888 72.5955 205.729 65.1517 226.131 65.8386C246.546 65.1513 266.399 72.5914 281.334 86.5261C296.269 100.461 305.065 119.752 305.793 140.165Z" fill="white"/>
<path d="M50.1975 295.607L76.7513 325.92L66.8088 343.259L46.8025 349.321L26.5538 334.65L24.25 311.249L50.1975 295.607Z" fill="#FFBBBC"/>
<path d="M246.865 99.5464C234.478 100.494 222.617 104.952 212.673 112.399C208.225 115.137 204.149 118.438 200.548 122.22C198.001 124.888 189.271 133.133 189.271 136.77C189.271 143.318 198.244 131.314 198.971 130.344C202.787 125.457 207.23 121.094 212.187 117.37C221.688 109.916 233.055 105.218 245.046 103.79C247.592 103.548 250.745 99.5464 246.865 99.5464Z" fill="#FFBBBC"/>
<path d="M194 100.395C197.403 97.5655 200.965 94.9341 204.67 92.5137C207.459 90.8162 216.795 89.3612 218.129 87.0575C223.221 80.025 202.73 88.9975 201.275 89.8462C196.425 92.8775 181.875 102.335 181.875 109.125C181.875 115.915 191.696 102.214 194 100.395Z" fill="#FFBBBC"/>
<path d="M370.904 267.477C367.994 263.84 367.873 268.326 367.024 269.781C365.026 276.338 362.554 282.74 359.628 288.939C352.632 297.666 343.596 304.536 333.316 308.945C331.983 309.551 326.648 311.37 330.043 313.795C333.438 316.22 338.53 311.006 340.349 310.036C348.983 305.196 356.6 298.732 362.78 291C365.448 287.969 374.663 272.206 370.904 267.477Z" fill="#FFBBBC"/>
<path d="M380.361 287.726C376.845 287.726 366.781 305.307 363.144 308.339C359.506 311.37 347.017 317.796 355.505 318.402C359.627 318.402 368.236 309.43 370.782 306.277C373.329 303.125 386.06 287.726 380.361 287.726Z" fill="#FFBBBC"/>
<path d="M292.334 92.3924C283.459 83.0163 272.705 75.6205 260.774 70.6893C248.843 65.7581 236.004 63.4027 223.1 63.7774C207.916 64.5619 193.204 69.3203 180.437 77.5764C167.67 85.8326 157.295 97.297 150.35 110.822C144.438 125.586 143.011 141.765 146.246 157.336C149.481 172.906 157.235 187.178 168.538 198.365C202.488 234.74 255.474 218.25 286.15 186.967C298.315 175.189 306.749 160.094 310.4 143.56C311.761 134.206 310.827 124.661 307.68 115.747C304.533 106.833 299.266 98.8185 292.334 92.3924ZM300.579 153.017C297.832 147.512 293.816 142.739 288.862 139.092C283.908 135.445 278.157 133.028 272.085 132.041C230.375 124.645 199.335 174.115 187.938 207.459C172.491 198.67 160.604 184.756 154.337 168.126C148.07 151.495 147.818 133.197 153.624 116.4C169.75 76.1449 220.918 59.7761 258.626 76.3874C269.755 80.6486 279.678 87.5567 287.537 96.5142C295.396 105.472 300.954 116.209 303.731 127.797V126.827C304.573 135.682 303.497 144.615 300.579 153.017Z" fill="#361041"/>
<path d="M349.927 269.902C350.078 264.662 348.426 259.528 345.249 255.357C342.072 251.187 337.56 248.232 332.467 246.986H333.195C314.233 239.947 293.481 239.35 274.146 245.289C282.512 234.74 298.396 231.951 309.309 223.585C320.584 213.593 329.419 201.149 335.135 187.21C342.902 171.293 346.457 153.649 345.459 135.966C344.461 118.283 338.945 101.151 329.436 86.2087C320.73 71.0295 308.937 57.8451 294.819 47.5069C280.7 37.1688 264.571 29.9068 247.471 26.1899C228.675 23.0747 209.404 24.582 191.321 30.5815C173.238 36.5809 156.887 46.8923 143.681 60.6249C112.762 96.0299 97 143.802 121.25 186.482C117.407 188.148 114.01 190.696 111.335 193.919C108.66 197.142 106.781 200.95 105.851 205.034C104.825 209.01 104.825 213.182 105.851 217.159C106.457 219.341 112.277 226.98 112.156 228.435C112.156 232.315 100.031 241.287 96.7575 244.076L89.24 251.23C79.2975 260.566 68.9912 269.539 59.4125 279.239C54.6467 284.511 48.7646 288.653 42.195 291.364C37.1048 292.738 32.3647 295.179 28.2887 298.523C24.2126 301.868 20.8935 306.04 18.5512 310.764C16.7205 315.58 16.0227 320.754 16.5117 325.883C17.0007 331.013 18.6634 335.961 21.3712 340.345C24.0791 344.729 27.7593 348.432 32.1272 351.166C36.495 353.899 41.4334 355.592 46.56 356.111C66.93 358.657 77.9637 346.29 82.2075 328.102C84.39 319.251 94.3325 312.582 100.88 305.792C107.427 299.002 115.794 291 122.462 283.604C126.949 278.39 131.556 273.176 136.164 268.084C137.861 266.144 140.892 261.415 143.075 260.809C145.257 260.202 154.109 265.174 157.382 265.78C162.481 266.848 167.773 266.522 172.702 264.837C177.631 263.151 182.015 260.168 185.391 256.201C189.877 250.139 186.725 249.169 195.091 250.017C202.104 250.663 209.146 250.947 216.189 250.866C212.551 261.415 208.429 271.6 205.034 282.149C202.23 287.874 200.581 294.095 200.184 300.457C201.154 305.671 203.943 305.55 209.641 305.792C223.706 306.399 238.014 304.459 252.079 304.095C278.754 303.246 311.855 305.914 335.741 291.97C339.59 289.569 342.859 286.345 345.312 282.529C347.765 278.713 349.342 274.401 349.927 269.902ZM67.0512 333.801C65.5503 336.8 63.1945 339.288 60.2813 340.949C57.3681 342.611 54.028 343.372 50.6825 343.137C46.1067 342.441 41.8256 340.45 38.345 337.399C34.8644 334.348 32.3296 330.365 31.04 325.92C30.07 313.189 37.5875 310.4 46.075 303.125C49.955 315.25 59.655 318.281 67.0512 326.162C70.2037 329.315 70.325 328.83 67.0512 333.801ZM170.599 248.926C160.05 256.08 143.924 242.015 137.376 233.527C133.132 228.799 128.404 224.676 124.039 220.069C122.066 218.403 120.641 216.182 119.949 213.695C119.257 211.208 119.33 208.57 120.159 206.125C121.492 202.487 127.312 195.697 131.677 196.182C136.042 196.667 137.74 201.76 139.922 204.912C144.943 211.809 150.901 217.972 157.625 223.221C162.839 227.344 170.72 229.647 175.206 234.012C179.692 238.377 176.419 244.804 170.599 248.684V248.926ZM239.59 236.074C201.639 240.439 164.172 232.679 141.741 199.699C128.515 180.539 122.413 157.353 124.495 134.164C126.577 110.976 136.711 89.2474 153.139 72.7499C166.006 59.0371 182.471 49.219 200.652 44.4164C218.833 39.6139 237.998 40.0205 255.959 45.5899C276.663 52.8986 294.85 65.9664 308.382 83.2571C321.914 100.548 330.228 121.342 332.346 143.196C332.344 163.754 325.136 183.662 311.976 199.456C303.05 210.159 292.018 218.912 279.565 225.17C267.112 231.428 253.505 235.057 239.59 235.831V236.074Z" fill="#361041"/>
<path d="M205.276 207.459C231.345 211.218 277.42 187.938 283.967 166.476C290.515 145.015 259.717 142.226 239.347 159.808C218.977 177.389 202.609 205.276 205.276 207.459Z" fill="#F41870"/>
<path d="M252.442 261.415L258.626 247.956L234.376 250.624C234.376 250.624 218.371 283.604 223.706 286.999C229.041 290.394 325.799 289.545 329.315 268.205C331.376 253.655 282.027 259.839 252.442 261.415Z" fill="#F41870"/>
</svg>
